<?xml version="1.0" encoding="utf-8"?>
<!-- Generator: Adobe Illustrator 25.3.1, SVG Export Plug-In . SVG Version: 6.00 Build 0)  -->
<svg version="1.1" id="Layer_1" xmlns="http://www.w3.org/2000/svg" xmlns:xlink="http://www.w3.org/1999/xlink" x="0px" y="0px"
	 viewBox="0 0 118.1 48.9" style="enable-background:new 0 0 118.1 48.9;" xml:space="preserve">
<style type="text/css">
	.st0{fill:none;stroke:#000000;stroke-width:2.14;stroke-miterlimit:10;}
	.st1{fill:none;stroke:#000000;stroke-width:2.14;stroke-linecap:round;stroke-miterlimit:10;}
	.st2{fill:#FFFFFF;}
	.st3{enable-background:new    ;}
</style>
<g>
	<circle class="st0" cx="21.8" cy="21.9" r="15.6"/>
	<circle class="st0" cx="21.8" cy="21.9" r="3.5"/>
	<line class="st1" x1="1.1" y1="21.9" x2="117" y2="21.9"/>
	<line class="st1" x1="21.4" y1="42.3" x2="21.4" y2="1.6"/>
	<line class="st1" x1="7.4" y1="7.5" x2="36.2" y2="36.3"/>
	<line class="st1" x1="7.4" y1="35.9" x2="36.2" y2="7.1"/>
	<circle class="st2" cx="21.8" cy="21.9" r="2"/>
	<g class="st3">
		<path d="M43.7,19.3v-16h3.4c0.6,0,1.2,0.1,1.7,0.2s0.9,0.5,1.3,0.9c0.4,0.4,0.7,0.9,0.8,1.5c0.1,0.6,0.2,1.3,0.2,2.3
			c0,0.7,0,1.3-0.1,1.8s-0.3,1-0.5,1.4c-0.3,0.5-0.7,0.9-1.3,1.2C48.7,12.9,48,13,47.1,13H46v6.3H43.7z M46,5.4v5.4h1.1
			c0.5,0,0.8-0.1,1.1-0.2c0.3-0.1,0.4-0.3,0.6-0.6c0.1-0.2,0.2-0.5,0.2-0.8s0-0.7,0-1.1c0-0.4,0-0.7,0-1.1c0-0.3-0.1-0.6-0.2-0.9
			s-0.3-0.5-0.5-0.6c-0.2-0.1-0.6-0.2-1-0.2H46z"/>
		<path d="M52.9,7c0-0.6,0.1-1.2,0.3-1.7c0.2-0.5,0.5-0.9,0.9-1.2c0.4-0.3,0.8-0.6,1.2-0.7c0.5-0.2,0.9-0.2,1.4-0.2
			c0.5,0,0.9,0.1,1.4,0.2c0.5,0.2,0.9,0.4,1.2,0.7c0.4,0.3,0.7,0.7,0.9,1.2c0.2,0.5,0.3,1.1,0.3,1.7v8.5c0,0.7-0.1,1.3-0.3,1.7
			c-0.2,0.5-0.5,0.9-0.9,1.2c-0.4,0.3-0.8,0.6-1.2,0.7s-0.9,0.2-1.4,0.2c-0.5,0-0.9-0.1-1.4-0.2s-0.9-0.4-1.2-0.7
			c-0.4-0.3-0.7-0.7-0.9-1.2c-0.2-0.5-0.3-1.1-0.3-1.7V7z M55.2,15.5c0,0.6,0.2,1,0.5,1.2c0.3,0.3,0.7,0.4,1.1,0.4
			c0.4,0,0.8-0.1,1.1-0.4c0.3-0.3,0.5-0.7,0.5-1.2V7c0-0.6-0.2-1-0.5-1.2c-0.3-0.3-0.7-0.4-1.1-0.4c-0.4,0-0.8,0.1-1.1,0.4
			c-0.3,0.3-0.5,0.7-0.5,1.2V15.5z"/>
	</g>
	<g class="st3">
		<path d="M62.7,19.3v-16h3.7c2.7,0,4.1,1.6,4.1,4.7c0,0.9-0.1,1.7-0.4,2.4c-0.3,0.7-0.8,1.2-1.5,1.6l2.5,7.3h-2.4l-2.1-6.8H65v6.8
			H62.7z M65,5.4v5h1.3c0.4,0,0.7-0.1,1-0.2c0.2-0.1,0.4-0.3,0.6-0.5C68,9.5,68.1,9.3,68.1,9s0.1-0.7,0.1-1.1c0-0.4,0-0.8-0.1-1.1
			S68,6.3,67.8,6c-0.3-0.4-0.8-0.6-1.6-0.6H65z"/>
	</g>
	<g class="st3">
		<path d="M73.6,19.3V5.4h-2.7V3.2h7.6v2.2h-2.7v13.9H73.6z"/>
	</g>
	<g class="st3">
		<path d="M50,37.3v1c0,0.5-0.1,1-0.3,1.4c-0.2,0.4-0.4,0.8-0.8,1.2c-0.3,0.3-0.7,0.6-1.2,0.8c-0.4,0.2-0.9,0.3-1.4,0.3
			c-0.4,0-0.9-0.1-1.3-0.2c-0.5-0.1-0.9-0.3-1.2-0.6c-0.4-0.3-0.7-0.7-0.9-1.2c-0.2-0.5-0.3-1.1-0.3-1.8v-8.8c0-0.5,0.1-1,0.3-1.5
			c0.2-0.5,0.4-0.8,0.8-1.2c0.3-0.3,0.7-0.6,1.2-0.8s1-0.3,1.5-0.3c1.1,0,2,0.4,2.6,1.1c0.3,0.3,0.6,0.8,0.8,1.2
			c0.2,0.5,0.3,1,0.3,1.5v0.9h-2.3v-0.8c0-0.5-0.1-0.8-0.4-1.2c-0.3-0.3-0.6-0.5-1-0.5c-0.6,0-0.9,0.2-1.1,0.5
			c-0.2,0.4-0.3,0.8-0.3,1.3v8.2c0,0.5,0.1,0.9,0.3,1.2s0.6,0.5,1.1,0.5c0.1,0,0.3,0,0.5-0.1c0.2-0.1,0.3-0.1,0.5-0.3
			c0.1-0.1,0.2-0.3,0.3-0.5c0.1-0.2,0.1-0.5,0.1-0.8v-0.8H50z"/>
		<path d="M52,29.6c0-0.6,0.1-1.2,0.3-1.7c0.2-0.5,0.5-0.9,0.9-1.2c0.4-0.3,0.8-0.6,1.2-0.7c0.5-0.2,0.9-0.2,1.4-0.2
			c0.5,0,0.9,0.1,1.4,0.2c0.5,0.2,0.9,0.4,1.2,0.7c0.4,0.3,0.7,0.7,0.9,1.2c0.2,0.5,0.3,1.1,0.3,1.7v8.5c0,0.7-0.1,1.3-0.3,1.7
			c-0.2,0.5-0.5,0.9-0.9,1.2c-0.4,0.3-0.8,0.6-1.2,0.7S56.3,42,55.8,42c-0.5,0-0.9-0.1-1.4-0.2s-0.9-0.4-1.2-0.7
			c-0.4-0.3-0.7-0.7-0.9-1.2c-0.2-0.5-0.3-1.1-0.3-1.7V29.6z M54.3,38.1c0,0.6,0.2,1,0.5,1.2c0.3,0.3,0.7,0.4,1.1,0.4
			c0.4,0,0.8-0.1,1.1-0.4c0.3-0.3,0.5-0.7,0.5-1.2v-8.5c0-0.6-0.2-1-0.5-1.2c-0.3-0.3-0.7-0.4-1.1-0.4c-0.4,0-0.8,0.1-1.1,0.4
			c-0.3,0.3-0.5,0.7-0.5,1.2V38.1z"/>
		<path d="M61.9,41.9v-16h6.8V28h-4.5v4.9h4V35h-4v6.8H61.9z"/>
		<path d="M70.5,41.9v-16h6.8V28h-4.5v4.9h4V35h-4v6.8H70.5z"/>
		<path d="M79,41.9v-16h6.8V28h-4.5v4.7h4v2.2h-4v4.7h4.5v2.3H79z"/>
		<path d="M87.6,41.9v-16h6.8V28h-4.5v4.7h4v2.2h-4v4.7h4.5v2.3H87.6z"/>
		<path d="M107.9,37.3v1c0,0.5-0.1,1-0.3,1.4c-0.2,0.4-0.4,0.8-0.8,1.2c-0.3,0.3-0.7,0.6-1.2,0.8c-0.4,0.2-0.9,0.3-1.4,0.3
			c-0.4,0-0.9-0.1-1.3-0.2s-0.9-0.3-1.2-0.6c-0.4-0.3-0.7-0.7-0.9-1.2c-0.2-0.5-0.3-1.1-0.3-1.8v-8.8c0-0.5,0.1-1,0.3-1.5
			c0.2-0.5,0.4-0.8,0.8-1.2c0.3-0.3,0.7-0.6,1.2-0.8s1-0.3,1.5-0.3c1.1,0,2,0.4,2.6,1.1c0.3,0.3,0.6,0.8,0.8,1.2s0.3,1,0.3,1.5v0.9
			h-2.3v-0.8c0-0.5-0.1-0.8-0.4-1.2c-0.3-0.3-0.6-0.5-1-0.5c-0.6,0-0.9,0.2-1.1,0.5c-0.2,0.4-0.3,0.8-0.3,1.3v8.2
			c0,0.5,0.1,0.9,0.3,1.2c0.2,0.3,0.6,0.5,1.1,0.5c0.2,0,0.3,0,0.5-0.1c0.2-0.1,0.3-0.1,0.5-0.3c0.1-0.1,0.2-0.3,0.3-0.5
			c0.1-0.2,0.1-0.5,0.1-0.8v-0.8H107.9z"/>
		<path d="M109.8,29.6c0-0.6,0.1-1.2,0.3-1.7c0.2-0.5,0.5-0.9,0.9-1.2c0.4-0.3,0.8-0.6,1.2-0.7c0.5-0.2,0.9-0.2,1.4-0.2
			c0.5,0,0.9,0.1,1.4,0.2c0.5,0.2,0.9,0.4,1.2,0.7c0.4,0.3,0.7,0.7,0.9,1.2c0.2,0.5,0.3,1.1,0.3,1.7v8.5c0,0.7-0.1,1.3-0.3,1.7
			c-0.2,0.5-0.5,0.9-0.9,1.2c-0.4,0.3-0.8,0.6-1.2,0.7s-0.9,0.2-1.4,0.2c-0.5,0-0.9-0.1-1.4-0.2s-0.9-0.4-1.2-0.7
			c-0.4-0.3-0.7-0.7-0.9-1.2c-0.2-0.5-0.3-1.1-0.3-1.7V29.6z M112.1,38.1c0,0.6,0.2,1,0.5,1.2s0.7,0.4,1.1,0.4
			c0.4,0,0.8-0.1,1.1-0.4s0.5-0.7,0.5-1.2v-8.5c0-0.6-0.2-1-0.5-1.2c-0.3-0.3-0.7-0.4-1.1-0.4c-0.4,0-0.8,0.1-1.1,0.4
			c-0.3,0.3-0.5,0.7-0.5,1.2V38.1z"/>
	</g>
	<g class="st3">
		<path d="M97.5,19.4v-5h2.1v0.7h-1.4v1.5h1.2v0.7h-1.2v1.5h1.4v0.7H97.5z"/>
		<path d="M102.4,15.9h-0.7v-0.2c0-0.2,0-0.3-0.1-0.4s-0.2-0.2-0.4-0.2c-0.1,0-0.2,0-0.2,0.1s-0.1,0.1-0.1,0.1
			c0,0.1-0.1,0.1-0.1,0.2s0,0.2,0,0.2c0,0.1,0,0.2,0,0.2s0,0.1,0.1,0.2c0,0.1,0.1,0.1,0.1,0.1c0.1,0,0.1,0.1,0.2,0.1l0.5,0.2
			c0.2,0.1,0.3,0.1,0.4,0.2c0.1,0.1,0.2,0.2,0.2,0.3c0.1,0.1,0.1,0.2,0.1,0.4c0,0.1,0,0.3,0,0.5c0,0.2,0,0.4-0.1,0.6
			c0,0.2-0.1,0.3-0.2,0.5c-0.1,0.1-0.2,0.2-0.4,0.3c-0.2,0.1-0.4,0.1-0.6,0.1c-0.2,0-0.3,0-0.5-0.1s-0.3-0.1-0.4-0.3
			s-0.2-0.2-0.3-0.4c-0.1-0.1-0.1-0.3-0.1-0.5V18h0.7v0.2c0,0.1,0,0.2,0.1,0.4c0.1,0.1,0.2,0.2,0.4,0.2c0.1,0,0.2,0,0.3-0.1
			s0.1-0.1,0.2-0.2s0.1-0.1,0.1-0.2c0-0.1,0-0.2,0-0.3c0-0.1,0-0.2,0-0.3c0-0.1,0-0.2-0.1-0.2c0-0.1-0.1-0.1-0.1-0.1
			c-0.1,0-0.1-0.1-0.2-0.1l-0.5-0.2c-0.3-0.1-0.5-0.3-0.6-0.5c-0.1-0.2-0.2-0.5-0.2-0.8c0-0.2,0-0.4,0.1-0.5
			c0.1-0.2,0.1-0.3,0.2-0.4c0.1-0.1,0.2-0.2,0.4-0.3c0.2-0.1,0.3-0.1,0.5-0.1c0.2,0,0.3,0,0.5,0.1c0.1,0.1,0.3,0.2,0.4,0.3
			c0.2,0.2,0.3,0.5,0.3,0.8V15.9z"/>
	</g>
	<g class="st3">
		<path d="M103.5,19.4v-4.3h-0.8v-0.7h2.4v0.7h-0.8v4.3H103.5z"/>
	</g>
	<g class="st3">
		<path d="M104.7,19.4v-0.7h0.7v0.7H104.7z"/>
		<path d="M107.4,19.4v-0.7l1.3-2.4c0.1-0.1,0.1-0.2,0.1-0.3c0-0.1,0-0.2,0-0.3c0-0.1,0-0.1,0-0.2c0-0.1,0-0.1,0-0.2
			s-0.1-0.1-0.1-0.1s-0.1-0.1-0.2-0.1c-0.1,0-0.2,0-0.3,0.1c-0.1,0.1-0.1,0.1-0.1,0.3v0.4h-0.7v-0.4c0-0.1,0-0.3,0.1-0.4
			c0.1-0.1,0.1-0.2,0.2-0.3c0.1-0.1,0.2-0.2,0.3-0.2s0.3-0.1,0.4-0.1c0.2,0,0.3,0,0.5,0.1c0.1,0.1,0.2,0.2,0.3,0.3
			c0.1,0.1,0.1,0.2,0.2,0.4c0,0.1,0.1,0.3,0.1,0.5c0,0.1,0,0.2,0,0.3c0,0.1,0,0.2,0,0.2c0,0.1,0,0.1-0.1,0.2c0,0.1-0.1,0.2-0.1,0.3
			l-1,2h1.3v0.7H107.4z"/>
		<path d="M110,15.5c0-0.2,0-0.3,0.1-0.4c0.1-0.1,0.1-0.2,0.2-0.3c0.1-0.1,0.2-0.2,0.3-0.2c0.1,0,0.3-0.1,0.4-0.1
			c0.1,0,0.3,0,0.4,0.1c0.1,0,0.2,0.1,0.3,0.2c0.1,0.1,0.2,0.2,0.2,0.3c0.1,0.1,0.1,0.3,0.1,0.4v2.9c0,0.2,0,0.3-0.1,0.4
			c-0.1,0.1-0.1,0.2-0.2,0.3c-0.1,0.1-0.2,0.2-0.3,0.2c-0.1,0-0.3,0.1-0.4,0.1c-0.1,0-0.3,0-0.4-0.1c-0.1,0-0.2-0.1-0.3-0.2
			c-0.1-0.1-0.2-0.2-0.2-0.3c-0.1-0.1-0.1-0.3-0.1-0.4V15.5z M110.8,18.4c0,0.1,0,0.2,0.1,0.3s0.1,0.1,0.3,0.1c0.1,0,0.2,0,0.3-0.1
			c0.1-0.1,0.1-0.2,0.1-0.3v-2.9c0-0.1,0-0.2-0.1-0.3c-0.1-0.1-0.1-0.1-0.3-0.1c-0.1,0-0.2,0-0.3,0.1c-0.1,0.1-0.1,0.2-0.1,0.3V18.4
			z"/>
		<path d="M112.7,19.4v-0.7l1.3-2.4c0.1-0.1,0.1-0.2,0.1-0.3c0-0.1,0-0.2,0-0.3c0-0.1,0-0.1,0-0.2c0-0.1,0-0.1,0-0.2
			s-0.1-0.1-0.1-0.1c0,0-0.1-0.1-0.2-0.1c-0.1,0-0.2,0-0.3,0.1c-0.1,0.1-0.1,0.1-0.1,0.3v0.4h-0.7v-0.4c0-0.1,0-0.3,0.1-0.4
			c0.1-0.1,0.1-0.2,0.2-0.3c0.1-0.1,0.2-0.2,0.3-0.2c0.1-0.1,0.3-0.1,0.4-0.1c0.2,0,0.3,0,0.5,0.1c0.1,0.1,0.2,0.2,0.3,0.3
			c0.1,0.1,0.1,0.2,0.2,0.4s0.1,0.3,0.1,0.5c0,0.1,0,0.2,0,0.3c0,0.1,0,0.2,0,0.2c0,0.1,0,0.1-0.1,0.2c0,0.1-0.1,0.2-0.1,0.3l-1,2
			h1.3v0.7H112.7z"/>
		<path d="M116.2,19.4v-4.2l-0.7,0.5V15l0.7-0.5h0.7v5H116.2z"/>
	</g>
</g>
</svg>
